<?xml version="1.0" encoding="utf-8"?>
<!-- Generator: Adobe Illustrator 21.0.1, SVG Export Plug-In . SVG Version: 6.00 Build 0)  -->
<!DOCTYPE svg PUBLIC "-//W3C//DTD SVG 1.1//EN" "http://www.w3.org/Graphics/SVG/1.1/DTD/svg11.dtd">
<svg version="1.1" id="Layer_1" xmlns="http://www.w3.org/2000/svg" xmlns:xlink="http://www.w3.org/1999/xlink" x="0px" y="0px"
	 viewBox="0 0 181.9 23.8" style="enable-background:new 0 0 181.9 23.8;" xml:space="preserve">
<style type="text/css">
	.st0{fill:#FFFFFF;}
</style>
<g>
	<path class="st0" d="M7.5,22.6L7,18h-3l-0.5,4.6H0.7L3.4,1.9h4l2.8,20.6H7.5z M5.5,5.1L4.2,15.4h2.4L5.5,5.1z"/>
	<path class="st0" d="M22.2,22.6l0.1-15.4l-2.8,15.4h-2.5L14.1,7.2l0.1,15.4h-2.7V1.9h4.4l2.3,14.4l2.3-14.4h4.4v20.6H22.2z"/>
	<path class="st0" d="M27.1,22.6V1.9h7.4v2.6h-4.6v6.3h4.4v2.6h-4.4V20h4.6v2.6H27.1z"/>
	<path class="st0" d="M42.4,22.6L40,14.1H39v8.5h-2.7V1.9h4.6c2.1,0,3.8,1.2,3.8,4.3v3.3c0,2.1-0.5,3.3-2,3.9l2.5,9.1H42.4z
		 M41.9,6.6c0-1.5-0.5-2-1.5-2H39v6.9h1.4c1,0,1.5-0.5,1.5-2V6.6z"/>
	<path class="st0" d="M46.4,22.6V1.9h2.7v20.6H46.4z"/>
	<path class="st0" d="M59.7,18.6c0,3.1-2,4.3-4.2,4.3c-2.3,0-4.3-1.3-4.3-4.3V5.9c0-3,1.9-4.3,4.4-4.3c2.2,0,4.1,1,4.1,4.1v3.4h-2.7
		V6.2c0-1.5-0.8-2-1.5-2s-1.5,0.5-1.5,2v12c0,1.5,0.8,2,1.5,2s1.5-0.5,1.5-2v-2.6h2.7V18.6z"/>
	<path class="st0" d="M67.3,22.6L66.8,18h-3l-0.5,4.6h-2.7l2.8-20.6h4l2.8,20.6H67.3z M65.2,5.1L64,15.4h2.4L65.2,5.1z"/>
	<path class="st0" d="M77.5,22.6L73.9,8.8L74,22.6h-2.7V1.9h3.4l3.8,14l-0.1-14h2.7v20.6H77.5z"/>
	<path class="st0" d="M89.4,22.6V1.9h2.7v20.6H89.4z"/>
	<path class="st0" d="M100.6,22.6L97,8.8L97,22.6h-2.7V1.9h3.4l3.8,14l-0.1-14h2.7v20.6H100.6z"/>
	<path class="st0" d="M112.7,22.6L109,8.8l0.1,13.8h-2.7V1.9h3.4l3.8,14l-0.1-14h2.7v20.6H112.7z"/>
	<path class="st0" d="M118.3,5.9c0-3,1.9-4.3,4.4-4.3c2.6,0,4.1,1.3,4.1,4.3v12.7c0,3.1-2,4.3-4.2,4.3c-2.3,0-4.3-1.3-4.3-4.3V5.9z
		 M124,6.2c0-1.5-0.8-2-1.5-2c-0.8,0-1.5,0.5-1.5,2v12c0,1.5,0.8,2,1.5,2c0.8,0,1.5-0.5,1.5-2V6.2z"/>
	<path class="st0" d="M134.4,22.6h-4l-2.5-20.6h2.7l1.8,17.2l1.8-17.2h2.7L134.4,22.6z"/>
	<path class="st0" d="M143.7,22.6l-0.5-4.6h-3l-0.5,4.6h-2.7l2.8-20.6h4l2.8,20.6H143.7z M141.6,5.1l-1.2,10.3h2.4L141.6,5.1z"/>
	<path class="st0" d="M148.5,22.6v-18h-2.6V1.9h7.9v2.6h-2.6v18H148.5z"/>
	<path class="st0" d="M155.1,22.6V1.9h2.7v20.6H155.1z"/>
	<path class="st0" d="M159.8,5.9c0-3,1.9-4.3,4.4-4.3c2.6,0,4.1,1.3,4.1,4.3v12.7c0,3.1-2,4.3-4.2,4.3c-2.3,0-4.3-1.3-4.3-4.3V5.9z
		 M165.6,6.2c0-1.5-0.8-2-1.5-2c-0.8,0-1.5,0.5-1.5,2v12c0,1.5,0.8,2,1.5,2c0.8,0,1.5-0.5,1.5-2V6.2z"/>
	<path class="st0" d="M176.7,22.6l-3.6-13.8l0.1,13.8h-2.7V1.9h3.4l3.8,14l-0.1-14h2.7v20.6H176.7z"/>
</g>
</svg>
