<svg xmlns="http://www.w3.org/2000/svg" viewBox="0 0 182 24">
    <title>american-innovation</title>
    <path d="M7.55,22.7l-.5-4.6h-3l-.5,4.6H.75L3.45,2h4l2.8,20.6H7.55Zm-2-17.5L4.25,15.5h2.4Z" fill="#fff"/>
    <path d="M22.25,22.7l.1-15.4-2.8,15.4h-2.5L14.15,7.3l.1,15.4h-2.7V2H16l2.3,14.4L20.55,2H25V22.6h-2.7Z" fill="#fff"/>
    <path d="M27.15,22.7V2h7.4V4.6H30v6.3h4.4v2.6H30v6.6h4.6v2.6Z" fill="#fff"/>
    <path d="M42.45,22.7l-2.4-8.5h-1v8.5h-2.7V2H41c2.1,0,3.8,1.2,3.8,4.3V9.6c0,2.1-.5,3.3-2,3.9l2.5,9.1h-2.8ZM42,6.7c0-1.5-.5-2-1.5-2h-1.4v6.9h1.4c1,0,1.5-.5,1.5-2Z" fill="#fff"/>
    <path d="M46.45,22.7V2h2.7V22.6h-2.7Z" fill="#fff"/>
    <path d="M59.75,18.7c0,3.1-2,4.3-4.2,4.3a4,4,0,0,1-4.3-4.3V6c0-3,1.9-4.3,4.4-4.3,2.2,0,4.1,1,4.1,4.1V9.2h-2.7V6.3c0-1.5-.8-2-1.5-2s-1.5.5-1.5,2v12c0,1.5.8,2,1.5,2s1.5-.5,1.5-2V15.7h2.7Z" fill="#fff"/>
    <path d="M67.35,22.7l-.5-4.6h-3l-.5,4.6h-2.7l2.8-20.6h4l2.8,20.6ZM65.25,5.2l-1.2,10.3h2.4Z" fill="#fff"/>
    <path d="M77.55,22.7,74,8.9l.1,13.8h-2.7V2h3.4l3.8,14-.1-14h2.7V22.6h-3.6Z" fill="#fff"/>
    <path d="M89.45,22.7V2h2.7V22.6h-2.7Z" fill="#fff"/>
    <path d="M100.65,22.7,97.05,8.9V22.7h-2.7V2h3.4l3.8,14-.1-14h2.7V22.6h-3.5Z" fill="#fff"/>
    <path d="M112.75,22.7l-3.7-13.8.1,13.8h-2.7V2h3.4l3.8,14-.1-14h2.7V22.6h-3.5Z" fill="#fff"/>
    <path d="M118.35,6c0-3,1.9-4.3,4.4-4.3s4.1,1.3,4.1,4.3V18.7c0,3.1-2,4.3-4.2,4.3a4,4,0,0,1-4.3-4.3Zm5.7.3c0-1.5-.8-2-1.5-2s-1.5.5-1.5,2v12c0,1.5.8,2,1.5,2s1.5-.5,1.5-2Z" fill="#fff"/>
    <path d="M134.45,22.7h-4l-2.5-20.6h2.7l1.8,17.2,1.8-17.2h2.7Z" fill="#fff"/>
    <path d="M143.75,22.7l-.5-4.6h-3l-.5,4.6h-2.7l2.8-20.6h4l2.8,20.6Zm-2.1-17.5-1.2,10.3h2.4Z" fill="#fff"/>
    <path d="M148.55,22.7V4.7h-2.6V2h7.9V4.6h-2.6v18h-2.7Z" fill="#fff"/>
    <path d="M155.15,22.7V2h2.7V22.6h-2.7Z" fill="#fff"/>
    <path d="M159.85,6c0-3,1.9-4.3,4.4-4.3s4.1,1.3,4.1,4.3V18.7c0,3.1-2,4.3-4.2,4.3a4,4,0,0,1-4.3-4.3Zm5.8.3c0-1.5-.8-2-1.5-2s-1.5.5-1.5,2v12c0,1.5.8,2,1.5,2s1.5-.5,1.5-2Z" fill="#fff"/>
    <path d="M176.75,22.7l-3.6-13.8.1,13.8h-2.7V2h3.4l3.8,14-.1-14h2.7V22.6h-3.6Z" fill="#fff"/>
</svg>
