<svg xmlns="http://www.w3.org/2000/svg" viewBox="0 0 600 224">
    <title>hero</title>
    <path d="M44.51,55.74V3.07H56.22c5.34,0,9.67,3.05,9.67,10.94v9c0,7.89-4.07,10.94-9.42,10.94H51.38V55.62H44.51ZM59,15c0-3.82-1.27-5.34-3.82-5.34H51.64V27.24H55.2C57.74,27.24,59,26,59,21.9Z" fill="#fff"/>
    <path d="M85.73,55.74,79.63,34.11h-2.8V55.74H69.7V3.07H81.28c5.34,0,9.67,3.05,9.67,10.94v8.4c0,5.34-1.27,8.4-5.09,9.92l6.36,23.16H85.61ZM84.46,15c0-3.82-1.27-5.34-3.82-5.34H77.08V27.24h3.56c2.54,0,3.82-1.27,3.82-5.34Z" fill="#fff"/>
    <path d="M95.66,13.25c0-7.89,4.83-10.94,11.2-10.94s10.43,3.31,10.43,10.94V45.56c0,7.89-5.09,10.94-10.69,10.94A10.18,10.18,0,0,1,95.66,45.56Zm14.5.76c0-3.82-2-5.34-3.82-5.34s-3.82,1.27-3.82,5.34V44.55c0,3.82,2,5.34,3.82,5.34s3.82-1.27,3.82-5.34Z" fill="#fff"/>
    <path d="M136.88,3.07H144V45.56c0,7.89-5.09,10.94-10.69,10.94a10.18,10.18,0,0,1-10.94-10.94V3.07h6.87V44.8c0,3.82,2,5.34,3.82,5.34s3.82-1.27,3.82-5.34Z" fill="#fff"/>
    <path d="M149.35,55.74V3.07h11.71c5.34,0,9.67,3.05,9.67,10.94V44.55c0,7.89-4.33,10.94-9.67,10.94H149.35ZM163.85,15c0-3.82-1.27-5.34-3.82-5.34h-3.56V48.87h3.31c2.54,0,3.82-1.27,3.82-5.34V15Z" fill="#fff"/>
    <path d="M211.95,55.74l.25-39.44-7.12,39.44h-6.36L191.33,16.3l.25,39.19h-7.12V3.07h11.32l5.85,36.64,5.85-36.64h11.45V55.74Z" fill="#fff"/>
    <path d="M239.43,55.74,238.15,44h-7.89L229,55.74h-7.12l7-52.67H239l7.12,52.67ZM234,11.21,230.9,37.42H237Z" fill="#fff"/>
    <path d="M265.38,55.74l-9.16-35.12.25,35.12h-7.25V3.07h8.91l9.67,35.62-.25-35.62h7.12V55.74Z" fill="#fff"/>
    <path d="M294.64,3.07h7.12V45.56c0,7.89-5.09,10.94-10.69,10.94a10.18,10.18,0,0,1-10.94-10.94V3.07h7.25V44.8c0,3.82,2,5.34,3.82,5.34S295,48.87,295,44.8V3.07Z" fill="#fff"/>
    <path d="M307.11,55.74V3.07h18.83V9.69H314.24v16h11.45v6.62H314.24V55.49h-7.12Z" fill="#fff"/>
    <path d="M344,55.74,342.74,44h-7.89l-1.27,11.71h-7.12l7.12-52.67h10.18l7.12,52.67Zm-5.34-44.53-2.93,26.21h6.11Z" fill="#fff"/>
    <path d="M375.05,45.56c0,7.89-5.09,10.94-10.69,10.94a10.18,10.18,0,0,1-10.94-10.94V13.25c0-7.89,4.83-10.94,11.2-10.94,5.6,0,10.69,2.54,10.69,10.43v8.65h-7.12V14c0-3.82-2-5.34-3.82-5.34s-3.82,1.27-3.82,5.34V44.55c0,3.82,2,5.34,3.82,5.34s3.82-1.27,3.82-5.34V37.93h7.12v7.63Z" fill="#fff"/>
    <path d="M384.09,55.74V9.69h-6.62V3.07h20.1V9.69H391V55.74Z" fill="#fff"/>
    <path d="M415.26,3.07h7V45.56c0,7.89-5.09,10.94-10.69,10.94a10.18,10.18,0,0,1-10.94-10.94V3.07h7.12V44.8c0,3.82,2,5.34,3.82,5.34s3.82-1.27,3.82-5.34V3.07Z" fill="#fff"/>
    <path d="M443.5,55.74,437.4,34.11h-2.8V55.74h-7.25V3.07h11.71c5.34,0,9.67,3.05,9.67,10.94v8.4c0,5.34-1.27,8.4-5.09,9.92L450,55.49h-6.62ZM442,15c0-3.82-1.27-5.34-3.82-5.34H434.6V27.24h3.56c2.54,0,3.82-1.27,3.82-5.34Z" fill="#fff"/>
    <path d="M453.43,55.74V3.07h18.83V9.69H460.43v16h11.45v6.62H460.43V48.87h11.71v6.62H453.3Z" fill="#fff"/>
    <path d="M492.62,55.74l-6.11-21.63h-2.8V55.74h-7.12V3.07h11.83c5.34,0,9.67,3.05,9.67,10.94v8.4c0,5.34-1.27,8.4-5.09,9.92l6.36,23.16h-6.62ZM491.34,15c0-3.82-1.27-5.34-3.82-5.34H484V27.24h3.56c2.54,0,3.82-1.27,3.82-5.34Z" fill="#fff"/>
    <path d="M511.32,13.25c0-7.89,4.83-10.94,11.2-10.94s10.43,3.31,10.43,10.94V45.56c0,7.89-5.09,10.94-10.69,10.94a10.18,10.18,0,0,1-10.94-10.94Zm14.5.76c0-3.82-2-5.34-3.82-5.34s-3.82,1.27-3.82,5.34V44.55c0,3.82,2,5.34,3.82,5.34s3.82-1.27,3.82-5.34Z" fill="#fff"/>
    <path d="M537.91,55.74V3.07h18.83V9.69H545v16h11.45v6.62H545V55.49h-7.12Z" fill="#fff"/>
    <path d="M17,138.19V115H9.39v23.16h-7V85.52H9.52v22.65h7.63V85.52h7.12v52.67Z" fill="#fff"/>
    <path d="M44.26,85.52h7.12V128c0,7.89-5.09,10.94-10.69,10.94A10.18,10.18,0,0,1,29.75,128V85.52h7.12v41.86c0,3.82,2,5.34,3.82,5.34s3.82-1.27,3.82-5.34V85.52Z" fill="#fff"/>
    <path d="M77.34,128c0,7.63-4.58,10.94-10.94,10.94A10,10,0,0,1,55.45,128v-7.38h7.12v6.74c0,3.82,2,5.34,3.82,5.34s3.82-1.27,3.82-5.34V123c0-5.85-14.76-10.69-14.76-20.61V95.82c0-7.89,5.09-10.94,10.94-10.94,6.62,0,10.94,3.05,10.94,10.94V104H70.21V96.58c0-3.82-2-5.34-3.82-5.34s-3.82,1.27-3.82,5.34v4.33c0,7.89,14.76,10.69,14.76,20.36Z" fill="#fff"/>
    <path d="M86.37,138.19V92.13H79.75V85.52h20.1v6.62H93.24v46.06Z" fill="#fff"/>
    <path d="M103.29,138.19V85.52h7.12v46.06h8.4v6.62Z" fill="#fff"/>
    <path d="M121.87,138.19V85.52H140.7v6.62H129v16h11.45V115H129v16.54H140.7v6.62Z" fill="#fff"/>
    <path d="M161.05,138.19l-6.11-21.63h-2.8v21.63H144.9V85.52H156.6c5.34,0,9.67,3.05,9.67,10.94v8.4c0,5.34-1.27,8.4-5.09,9.92l6.36,23.16h-6.62Zm-1.53-40.71c0-3.82-1.27-5.34-3.82-5.34h-3.56v17.81h3.56c2.54,0,3.82-1.27,3.82-5.34Z" fill="#fff"/>
    <path d="M182.94,138.19V92.13h-6.62V85.52h20.1v6.62h-6.62v46.06Z" fill="#fff"/>
    <path d="M214.24,85.52h7.12V128c0,7.89-5.09,10.94-10.69,10.94A10.18,10.18,0,0,1,199.73,128V85.52h7.12v41.86c0,3.82,2,5.34,3.82,5.34s3.82-1.27,3.82-5.34V85.52Z" fill="#fff"/>
    <path d="M242.48,138.19l-6.11-21.63h-2.8v21.63h-7.25V85.52H238c5.34,0,9.67,3.05,9.67,10.94v8.4c0,5.34-1.27,8.4-5.09,9.92L249,137.93h-6.62Zm-1.27-40.71c0-3.82-1.27-5.34-3.82-5.34h-3.56v17.81h3.56c2.54,0,3.82-1.27,3.82-5.34Z" fill="#fff"/>
    <path d="M252.66,138.19V85.52h18.83v6.62H259.78v16h11.45V115H259.78v23.16Z" fill="#fff"/>
    <path d="M283.7,138.19V85.52h18.83v6.62H290.83v16h11.45V115H290.83v16.54h11.71v6.62Z" fill="#fff"/>
    <path d="M321.11,147.86,317,139c-5.34,0-10.43-3.05-10.43-10.94V95.69c0-7.89,4.83-10.94,11.2-10.94s10.43,3.05,10.43,10.94V128a9.54,9.54,0,0,1-5.22,9.54l3.82,7.89Zm.25-51.4c0-3.82-2-5.34-3.82-5.34s-3.82,1.27-3.82,5.34V127c0,3.82,2,5.34,3.82,5.34s3.82-1.27,3.82-5.34Z" fill="#fff"/>
    <path d="M348.08,85.52h7.12V128c0,7.89-5.09,10.94-10.69,10.94A10.18,10.18,0,0,1,333.58,128V85.52h7.25v41.86c0,3.82,2,5.34,3.82,5.34s3.82-1.27,3.82-5.34V85.52Z" fill="#fff"/>
    <path d="M360.55,138.19V85.52h7.12v52.67Z" fill="#fff"/>
    <path d="M373,138.19V85.52h11.71c5.34,0,9.67,3.05,9.67,10.94v8.91c0,7.89-4.07,10.94-9.42,10.94h-5.09v21.63H373Zm14.25-40.71c0-3.82-1.27-5.34-3.82-5.34h-3.56v17.81h3.56c2.54,0,3.82-1.27,3.82-5.34Z" fill="#fff"/>
    <path d="M425.95,138.19l.25-39.44-7.12,39.44h-6.36L405.59,99l.25,39.19h-7.12V85.52h11.45L416,122.16l5.85-36.64h11.45v52.67Z" fill="#fff"/>
    <path d="M438.42,138.19V85.52h18.83v6.62H445.54v16H457V115H445.54v16.54h11.71v6.62Z" fill="#fff"/>
    <path d="M477.86,138.19l-9.16-35.12.25,35.12h-7.12V85.52h8.78l9.67,35.62L480,85.52h7.12v52.67Z" fill="#fff"/>
    <path d="M496.94,138.19V92.13h-6.62V85.52h20.1v6.62h-6.74v46.06Z" fill="#fff"/>
    <path d="M535.36,138.19l-1.27-11.71H526.2l-1.27,11.71h-7.12l7.12-52.67h10.18l7.12,52.67ZM530,93.66,527,119.74h6.11Z" fill="#fff"/>
    <path d="M561.32,138.19,552,103.07l.25,35.12h-7.12V85.52h8.91l9.67,35.62-.25-35.62h7.12v52.67Z" fill="#fff"/>
    <path d="M576.08,138.19V85.52h11.71c5.34,0,9.67,3.05,9.67,10.94V127c0,7.89-4.33,10.94-9.67,10.94H576.08Zm14.25-40.71c0-3.82-1.27-5.34-3.82-5.34h-3.56v39.19h3.56c2.54,0,3.82-1.27,3.82-5.34Z" fill="#fff"/>
    <path d="M110.16,220.63V168.09h11.71c5.34,0,9.67,3.31,9.67,10.94v6.62a7.43,7.43,0,0,1-5.09,7.89,7.89,7.89,0,0,1,5.6,8.4v7.63c0,7.63-4.33,10.94-9.67,10.94H110.16Zm14.5-40.71c0-3.82-1.27-5.34-3.82-5.34h-3.56v15.78h3.56c2.54,0,3.82-1.27,3.82-5.34Zm.51,22.39c0-3.82-2-5.34-4.58-5.34H116.9v16.92H121c2.54,0,3.82-1.27,3.82-5.34v-6.11Z" fill="#fff"/>
    <path d="M136.63,220.63V168.09h7.12v52.67Z" fill="#fff"/>
    <path d="M164.36,200.28h-4.58v-6.62h11.71v16.79c0,7.89-5.09,10.94-11.2,10.94s-11.2-3.31-11.2-10.94V178.27c0-7.89,4.83-10.94,11.2-10.94s11.2,3.31,11.2,10.94v8.14h-7.12V179c0-3.82-2-5.34-4.07-5.34s-4.07,1.27-4.07,5.34v30.54c0,3.82,2,5.34,4.07,5.34s4.07-1.27,4.07-5.34Z" fill="#fff"/>
    <path d="M176.07,220.63V168.09h11.71c5.34,0,9.67,3.05,9.67,10.94v30.54c0,7.89-4.33,10.94-9.67,10.94H176.07Zm14.25-40.71c0-3.82-1.27-5.34-3.82-5.34h-3.56v39.31h3.56c2.54,0,3.82-1.27,3.82-5.34Z" fill="#fff"/>
    <path d="M202.28,178.27c0-7.89,4.83-10.94,11.2-10.94s10.31,3.31,10.31,10.94v32.32c0,7.89-5.09,10.94-10.69,10.94a10.18,10.18,0,0,1-10.94-10.94Zm14.5.76c0-3.82-2-5.34-3.82-5.34s-3.82,1.27-3.82,5.34v30.54c0,3.82,2,5.34,3.82,5.34s3.82-1.27,3.82-5.34Z" fill="#fff"/>
    <path d="M244,200.28h-4.58v-6.62h11.71v16.79c0,7.89-5.09,10.94-11.2,10.94s-11.2-3.31-11.2-10.94V178.27c0-7.89,4.83-10.94,11.2-10.94s11.2,3.31,11.2,10.94v8.14H244V179c0-3.82-2-5.34-4.07-5.34s-4.07,1.27-4.07,5.34v30.54c0,3.82,2,5.34,4.07,5.34s4.07-1.27,4.07-5.34Z" fill="#fff"/>
    <path d="M291.85,220.63l.25-39.44-7.25,39.44h-6.36l-7.12-39.44.25,39.19h-7.12V168.09h11.45l5.85,36.64,5.85-36.64H299.1v52.67Z" fill="#fff"/>
    <path d="M304.06,178.27c0-7.89,4.83-10.94,11.2-10.94s10.31,3.31,10.31,10.94v32.32c0,7.89-5.09,10.94-10.69,10.94a10.18,10.18,0,0,1-10.94-10.94Zm14.76.76c0-3.82-2-5.34-3.82-5.34s-3.82,1.27-3.82,5.34v30.54c0,3.82,2,5.34,3.82,5.34s3.82-1.27,3.82-5.34Z" fill="#fff"/>
    <path d="M363.35,220.63h-9.8l-4.71-42.37-4.58,42.49h-9.92l-5.85-52.67h7.25l3.82,40.71,4.58-40.71h9.92l4.58,40.71,3.82-40.71h7.12Z" fill="#fff"/>
    <path d="M372.51,220.63V168.09h18.83v6.62H379.63v16h11.45v6.62H379.63v16.54h11.71v6.62H372.51Z" fill="#fff"/>
    <path d="M411.7,220.63,405.59,199h-2.8v21.63h-7.12V168.09h11.71c5.34,0,9.67,3.05,9.67,10.94v8.4c0,5.34-1.27,8.4-5.09,9.92l6.36,23.16H411.7Zm-1.27-40.71c0-3.82-1.27-5.34-3.82-5.34H403v17.56h3.56c2.54,0,3.82-1.27,3.82-5.34Z" fill="#fff"/>
    <path d="M451.9,210.46c0,7.89-5.09,10.94-10.69,10.94a10.18,10.18,0,0,1-10.94-10.94V178.27c0-7.89,4.83-10.94,11.2-10.94,5.6,0,10.69,2.54,10.69,10.43v8.65h-7.38V179c0-3.82-2-5.34-3.82-5.34s-3.82,1.27-3.82,5.34v30.54c0,3.82,2,5.34,3.82,5.34s3.82-1.27,3.82-5.34v-6.62h7.12Z" fill="#fff"/>
    <path d="M456,178.27c0-7.89,4.83-10.94,11.2-10.94s10.43,3.31,10.43,10.94v32.32c0,7.89-5.09,10.94-10.69,10.94A10.18,10.18,0,0,1,456,210.58Zm14.76.76c0-3.82-2-5.34-3.82-5.34S463.1,175,463.1,179v30.54c0,3.82,2,5.34,3.82,5.34s3.82-1.27,3.82-5.34Z" fill="#fff"/>
    <path d="M481.67,216.82a4.33,4.33,0,1,1,4.33,4.33h0A4.45,4.45,0,0,1,481.67,216.82Z" fill="#fff"/>
</svg>
