<svg id="e980eca3-926c-4b5a-a2bd-f003f8d32b88" data-name="Layer 1" xmlns="http://www.w3.org/2000/svg" viewBox="0 0 238.3 89.7"><title>hero</title><g id="1a3e03e7-bf49-42aa-bed8-2e4e1baf45a2" data-name="Toolbox"><path d="M18.7,22.7V2h4.6c2.1,0,3.8,1.2,3.8,4.3V9.8c0,3.1-1.6,4.3-3.7,4.3h-2v8.5H18.7Zm5.7-16c0-1.5-.5-2.1-1.5-2.1H21.5v6.9h1.4c1,0,1.5-.5,1.5-2.1Z" fill="#fff"/><path d="M34.9,22.7l-2.4-8.5H31.4v8.5H28.6V2h4.6C35.3,2,37,3.2,37,6.3V9.6c0,2.1-.5,3.3-2,3.9l2.5,9.1H34.9Zm-.5-16c0-1.5-.5-2.1-1.5-2.1H31.5v6.9h1.4c1,0,1.5-.5,1.5-2.1Z" fill="#fff"/><path d="M38.8,6c0-3.1,1.9-4.3,4.4-4.3S47.3,3,47.3,6V18.7c0,3.1-2,4.3-4.2,4.3a4,4,0,0,1-4.3-4.3Zm5.7.3c0-1.5-.8-2.1-1.5-2.1s-1.5.5-1.5,2.1v12c0,1.5.8,2.1,1.5,2.1s1.5-.5,1.5-2.1Z" fill="#fff"/><path d="M55,2h2.8V18.7c0,3.1-2,4.3-4.2,4.3a4,4,0,0,1-4.3-4.3V2H52V18.4c0,1.5.8,2.1,1.5,2.1S55,20,55,18.4Z" fill="#fff"/><path d="M59.9,22.7V2h4.6c2.1,0,3.8,1.2,3.8,4.3v12c0,3.1-1.7,4.3-3.8,4.3H59.9Zm5.7-16c0-1.5-.5-2.1-1.5-2.1H62.7V20H64c1,0,1.5-.5,1.5-2.1V6.7Z" fill="#fff"/><path d="M84.5,22.7l.1-15.5L81.8,22.7H79.3L76.4,7.2l.1,15.4H73.7V2h4.5l2.3,14.4L82.8,2h4.5V22.7Z" fill="#fff"/><path d="M95.3,22.7l-.5-4.6H91.7l-.5,4.6H88.4L91.2,2h4L98,22.7ZM93.2,5.2,92,15.5h2.4Z" fill="#fff"/><path d="M105.5,22.7,101.9,8.9l.1,13.8H99.2V2h3.5l3.8,14-.1-14h2.8V22.7Z" fill="#fff"/><path d="M117,2h2.8V18.7c0,3.1-2,4.3-4.2,4.3a4,4,0,0,1-4.3-4.3V2h2.8V18.4c0,1.5.8,2.1,1.5,2.1s1.5-.5,1.5-2.1V2Z" fill="#fff"/><path d="M121.9,22.7V2h7.4V4.6h-4.6v6.3h4.5v2.6h-4.5v9.1h-2.8Z" fill="#fff"/><path d="M136.4,22.7l-.5-4.6h-3.1l-.5,4.6h-2.8L132.3,2h4l2.8,20.7ZM134.3,5.2l-1.2,10.3h2.4Z" fill="#fff"/><path d="M148.6,18.7c0,3.1-2,4.3-4.2,4.3a4,4,0,0,1-4.3-4.3V6c0-3.1,1.9-4.3,4.4-4.3,2.2,0,4.2,1,4.2,4.1V9.2h-2.8V6.3c0-1.5-.8-2.1-1.5-2.1s-1.5.5-1.5,2.1v12c0,1.5.8,2.1,1.5,2.1s1.5-.5,1.5-2.1V15.7h2.8v3Z" fill="#fff"/><path d="M152.1,22.7V4.6h-2.6V2h7.9V4.6h-2.6V22.7Z" fill="#fff"/><path d="M164.4,2h2.8V18.7c0,3.1-2,4.3-4.2,4.3a4,4,0,0,1-4.3-4.3V2h2.8V18.4c0,1.5.8,2.1,1.5,2.1s1.5-.5,1.5-2.1V2Z" fill="#fff"/><path d="M175.5,22.7l-2.4-8.5H172v8.5h-2.8V2h4.6c2.1,0,3.8,1.2,3.8,4.3V9.6c0,2.1-.5,3.3-2,3.9l2.5,9.1h-2.6Zm-.6-16c0-1.5-.5-2.1-1.5-2.1H172v6.9h1.4c1,0,1.5-.5,1.5-2.1Z" fill="#fff"/><path d="M179.4,22.7V2h7.4V4.6h-4.6v6.3h4.5v2.6h-4.5V20h4.6v2.6h-7.4Z" fill="#fff"/><path d="M194.8,22.7l-2.4-8.5h-1.1v8.5h-2.8V2h4.6c2.1,0,3.8,1.2,3.8,4.3V9.6c0,2.1-.5,3.3-2,3.9l2.5,9.1h-2.6Zm-.5-16c0-1.5-.5-2.1-1.5-2.1h-1.4v6.9h1.4c1,0,1.5-.5,1.5-2.1Z" fill="#fff"/><path d="M202.1,6c0-3.1,1.9-4.3,4.4-4.3S210.6,3,210.6,6V18.7c0,3.1-2,4.3-4.2,4.3a4,4,0,0,1-4.3-4.3Zm5.7.3c0-1.5-.8-2.1-1.5-2.1s-1.5.5-1.5,2.1v12c0,1.5.8,2.1,1.5,2.1s1.5-.5,1.5-2.1Z" fill="#fff"/><path d="M212.6,22.7V2H220V4.6h-4.6v6.3h4.5v2.6h-4.5v9.1h-2.8Z" fill="#fff"/><path d="M7.9,55.1V46h-3v9.1H2.2V34.4H5v8.9H8V34.4h2.8V55.1Z" fill="#fff"/><path d="M18.6,34.4h2.8V51.1c0,3.1-2,4.3-4.2,4.3a4,4,0,0,1-4.3-4.3V34.4h2.8V50.8c0,1.5.8,2.1,1.5,2.1s1.5-.5,1.5-2.1V34.4Z" fill="#fff"/><path d="M31.6,51.1c0,3-1.8,4.3-4.3,4.3A3.94,3.94,0,0,1,23,51.1V48.2h2.8v2.6c0,1.5.8,2.1,1.5,2.1s1.5-.5,1.5-2.1V49.1c0-2.3-5.8-4.2-5.8-8.1V38.4c0-3.1,2-4.3,4.3-4.3,2.6,0,4.3,1.2,4.3,4.3v3.2H28.8V38.7c0-1.5-.8-2.1-1.5-2.1s-1.5.5-1.5,2.1v1.7c0,3.1,5.8,4.2,5.8,8Z" fill="#fff"/><path d="M35.2,55.1V37H32.6V34.4h7.9V37H37.9V55.1Z" fill="#fff"/><path d="M41.8,55.1V34.4h2.8V52.5h3.3v2.6Z" fill="#fff"/><path d="M49.1,55.1V34.4h7.4V37H51.9v6.3h4.5V46H51.9v6.5h4.6v2.6Z" fill="#fff"/><path d="M64.5,55.1l-2.4-8.5H61v8.5H58.2V34.4h4.6c2.1,0,3.8,1.2,3.8,4.3V42c0,2.1-.5,3.3-2,3.9L67.1,55H64.5Zm-.6-16c0-1.5-.5-2.1-1.5-2.1H61v7h1.4c1,0,1.5-.5,1.5-2.1Z" fill="#fff"/><path d="M73.1,55.1V37H70.5V34.4h7.9V37H75.8V55.1Z" fill="#fff"/><path d="M85.4,34.4h2.8V51.1c0,3.1-2,4.3-4.2,4.3a4,4,0,0,1-4.3-4.3V34.4h2.8V50.8c0,1.5.8,2.1,1.5,2.1s1.5-.5,1.5-2.1V34.4Z" fill="#fff"/><path d="M96.5,55.1l-2.4-8.5H93v8.5H90.2V34.4h4.6c2.1,0,3.8,1.2,3.8,4.3V42c0,2.1-.5,3.3-2,3.9L99.1,55H96.5Zm-.5-16c0-1.5-.5-2.1-1.5-2.1H93.1v7h1.4c1,0,1.5-.5,1.5-2.1Z" fill="#fff"/><path d="M100.5,55.1V34.4h7.4V37h-4.6v6.3h4.5V46h-4.5v9.1Z" fill="#fff"/><path d="M112.7,55.1V34.4h7.4V37h-4.6v6.3H120V46h-4.5v6.5h4.6v2.6Z" fill="#fff"/><path d="M127.4,58.9l-1.6-3.5c-2.1,0-4.1-1.2-4.1-4.3V38.4c0-3.1,1.9-4.3,4.4-4.3s4.1,1.2,4.1,4.3V51.1a3.75,3.75,0,0,1-2.1,3.8l1.5,3.1Zm.1-20.2c0-1.5-.8-2.1-1.5-2.1s-1.5.5-1.5,2.1v12c0,1.5.8,2.1,1.5,2.1s1.5-.5,1.5-2.1Z" fill="#fff"/><path d="M138,34.4h2.8V51.1c0,3.1-2,4.3-4.2,4.3a4,4,0,0,1-4.3-4.3V34.4h2.8V50.8c0,1.5.8,2.1,1.5,2.1s1.5-.5,1.5-2.1V34.4Z" fill="#fff"/><path d="M142.9,55.1V34.4h2.8V55.1Z" fill="#fff"/><path d="M147.8,55.1V34.4h4.6c2.1,0,3.8,1.2,3.8,4.3v3.5c0,3.1-1.6,4.3-3.7,4.3h-2V55h-2.7Zm5.6-16c0-1.5-.5-2.1-1.5-2.1h-1.4v7h1.4c1,0,1.5-.5,1.5-2.1Z" fill="#fff"/><path d="M168.6,55.1l.1-15.5-2.8,15.5h-2.5l-2.8-15.4.1,15.4h-2.8V34.4h4.5l2.3,14.4L167,34.4h4.5V55.1Z" fill="#fff"/><path d="M173.5,55.1V34.4h7.4V37h-4.6v6.3h4.5V46h-4.5v6.5h4.6v2.6Z" fill="#fff"/><path d="M189,55.1l-3.6-13.8.1,13.8h-2.8V34.4h3.5l3.8,14-.1-14h2.8V55.1Z" fill="#fff"/><path d="M196.5,55.1V37h-2.6V34.4h7.9V37h-2.6V55.1Z" fill="#fff"/><path d="M211.6,55.1l-.5-4.6H208l-.5,4.6h-2.8l2.8-20.7h4l2.8,20.7Zm-2.1-17.5-1.2,10.3h2.4Z" fill="#fff"/><path d="M221.8,55.1l-3.6-13.8.1,13.8h-2.8V34.4H219l3.8,14-.1-14h2.8V55.1Z" fill="#fff"/><path d="M227.6,55.1V34.4h4.6c2.1,0,3.8,1.2,3.8,4.3v12c0,3.1-1.7,4.3-3.8,4.3h-4.6Zm5.6-16c0-1.5-.5-2.1-1.5-2.1h-1.4V52.4h1.4c1,0,1.5-.5,1.5-2.1Z" fill="#fff"/><path d="M44.5,87.5V66.8h4.6c2.1,0,3.8,1.3,3.8,4.3v2.6a2.92,2.92,0,0,1-2,3.1,3.1,3.1,0,0,1,2.2,3.3v3c0,3-1.7,4.3-3.8,4.3H44.5Zm5.7-16c0-1.5-.5-2.1-1.5-2.1H47.3v6.2h1.4c1,0,1.5-.5,1.5-2.1Zm.2,8.8c0-1.5-.8-2.1-1.8-2.1H47.2v6.6h1.6c1,0,1.5-.5,1.5-2.1V80.3Z" fill="#fff"/><path d="M54.9,87.5V66.8h2.8V87.5Z" fill="#fff"/><path d="M65.8,79.5H64V76.9h4.6v6.6c0,3.1-2,4.3-4.4,4.3s-4.4-1.3-4.4-4.3V70.8c0-3.1,1.9-4.3,4.4-4.3s4.4,1.3,4.4,4.3V74H65.8V71.1c0-1.5-.8-2.1-1.6-2.1s-1.6.5-1.6,2.1v12c0,1.5.8,2.1,1.6,2.1s1.6-.5,1.6-2.1Z" fill="#fff"/><path d="M70.4,87.5V66.8H75c2.1,0,3.8,1.2,3.8,4.3v12c0,3.1-1.7,4.3-3.8,4.3H70.4Zm5.6-16c0-1.5-.5-2.1-1.5-2.1H73.1V84.8h1.4c1,0,1.5-.5,1.5-2.1Z" fill="#fff"/><path d="M80.7,70.8c0-3.1,1.9-4.3,4.4-4.3s4.1,1.3,4.1,4.3V83.5c0,3.1-2,4.3-4.2,4.3a4,4,0,0,1-4.3-4.3Zm5.7.3c0-1.5-.8-2.1-1.5-2.1s-1.5.5-1.5,2.1v12c0,1.5.8,2.1,1.5,2.1s1.5-.5,1.5-2.1Z" fill="#fff"/><path d="M97.1,79.5H95.3V76.9h4.6v6.6c0,3.1-2,4.3-4.4,4.3s-4.4-1.3-4.4-4.3V70.8c0-3.1,1.9-4.3,4.4-4.3s4.4,1.3,4.4,4.3V74H97.1V71.1c0-1.5-.8-2.1-1.6-2.1s-1.6.5-1.6,2.1v12c0,1.5.8,2.1,1.6,2.1s1.6-.5,1.6-2.1Z" fill="#fff"/><path d="M115.9,87.5,116,72l-2.8,15.5h-2.5L107.9,72l.1,15.4h-2.8V66.8h4.5L112,81.2l2.3-14.4h4.5V87.5Z" fill="#fff"/><path d="M120.7,70.8c0-3.1,1.9-4.3,4.4-4.3s4.1,1.3,4.1,4.3V83.5c0,3.1-2,4.3-4.2,4.3a4,4,0,0,1-4.3-4.3Zm5.8.3c0-1.5-.8-2.1-1.5-2.1s-1.5.5-1.5,2.1v12c0,1.5.8,2.1,1.5,2.1s1.5-.5,1.5-2.1Z" fill="#fff"/><path d="M144,87.5h-3.9l-1.8-16.7-1.8,16.7h-3.9l-2.3-20.7h2.8l1.5,16,1.8-16h3.9l1.8,16,1.5-16h2.8Z" fill="#fff"/><path d="M147.6,87.5V66.8H155v2.6h-4.6v6.3h4.5v2.6h-4.5v6.5H155v2.6h-7.4Z" fill="#fff"/><path d="M163,87.5,160.6,79h-1.1v8.5h-2.8V66.8h4.6c2.1,0,3.8,1.2,3.8,4.3v3.3c0,2.1-.5,3.3-2,3.9l2.5,9.1H163Zm-.5-16c0-1.5-.5-2.1-1.5-2.1h-1.4v6.9H161c1,0,1.5-.5,1.5-2.1Z" fill="#fff"/><path d="M178.8,83.5c0,3.1-2,4.3-4.2,4.3a4,4,0,0,1-4.3-4.3V70.8c0-3.1,1.9-4.3,4.4-4.3,2.2,0,4.2,1,4.2,4.1V74H176V71.1c0-1.5-.8-2.1-1.5-2.1s-1.5.5-1.5,2.1v12c0,1.5.8,2.1,1.5,2.1s1.5-.5,1.5-2.1V80.5h2.8Z" fill="#fff"/><path d="M180.4,70.8c0-3.1,1.9-4.3,4.4-4.3s4.1,1.3,4.1,4.3V83.5c0,3.1-2,4.3-4.2,4.3a4,4,0,0,1-4.3-4.3Zm5.8.3c0-1.5-.8-2.1-1.5-2.1s-1.5.5-1.5,2.1v12c0,1.5.8,2.1,1.5,2.1s1.5-.5,1.5-2.1Z" fill="#fff"/><path d="M190.5,86a1.7,1.7,0,1,1,1.7,1.7A1.75,1.75,0,0,1,190.5,86Z" fill="#fff"/></g></svg>