<svg xmlns="http://www.w3.org/2000/svg" viewBox="0 0 238 90">
    <title>hero</title>
    <path d="M18.55,22.85V2.15h4.6c2.1,0,3.8,1.2,3.8,4.3V10c0,3.1-1.6,4.3-3.7,4.3h-2v8.5h-2.7Zm5.7-16c0-1.5-.5-2.1-1.5-2.1h-1.4v6.9h1.4c1,0,1.5-.5,1.5-2.1Z" fill="#fff"/>
    <path d="M34.75,22.85l-2.4-8.5h-1.1v8.5h-2.8V2.15H33c2.1,0,3.8,1.2,3.8,4.3v3.3c0,2.1-.5,3.3-2,3.9l2.5,9.1h-2.6Zm-.5-16c0-1.5-.5-2.1-1.5-2.1h-1.4v6.9h1.4c1,0,1.5-.5,1.5-2.1Z" fill="#fff"/>
    <path d="M38.65,6.15c0-3.1,1.9-4.3,4.4-4.3s4.1,1.3,4.1,4.3v12.7c0,3.1-2,4.3-4.2,4.3a4,4,0,0,1-4.3-4.3Zm5.7.3c0-1.5-.8-2.1-1.5-2.1s-1.5.5-1.5,2.1v12c0,1.5.8,2.1,1.5,2.1s1.5-.5,1.5-2.1Z" fill="#fff"/>
    <path d="M54.85,2.15h2.8v16.7c0,3.1-2,4.3-4.2,4.3a4,4,0,0,1-4.3-4.3V2.15h2.7v16.4c0,1.5.8,2.1,1.5,2.1s1.5-.5,1.5-2.1Z" fill="#fff"/>
    <path d="M59.75,22.85V2.15h4.6c2.1,0,3.8,1.2,3.8,4.3v12c0,3.1-1.7,4.3-3.8,4.3h-4.6Zm5.7-16c0-1.5-.5-2.1-1.5-2.1h-1.4v15.4h1.3c1,0,1.5-.5,1.5-2.1V6.85Z" fill="#fff"/>
    <path d="M84.35,22.85l.1-15.5-2.8,15.5h-2.5l-2.9-15.5.1,15.4h-2.8V2.15H78l2.3,14.4,2.3-14.4h4.5v20.7Z" fill="#fff"/>
    <path d="M95.15,22.85l-.5-4.6h-3.1l-.5,4.6h-2.8L91,2.15h4l2.8,20.7ZM93,5.35l-1.2,10.3h2.4Z" fill="#fff"/>
    <path d="M105.35,22.85l-3.6-13.8.1,13.8H99V2.15h3.5l3.8,14-.1-14h2.8v20.7Z" fill="#fff"/>
    <path d="M116.85,2.15h2.8v16.7c0,3.1-2,4.3-4.2,4.3a4,4,0,0,1-4.3-4.3V2.15H114v16.4c0,1.5.8,2.1,1.5,2.1s1.5-.5,1.5-2.1V2.15Z" fill="#fff"/>
    <path d="M121.75,22.85V2.15h7.4v2.6h-4.6v6.3h4.5v2.6h-4.5v9.1h-2.8Z" fill="#fff"/>
    <path d="M136.25,22.85l-.5-4.6h-3.1l-.5,4.6h-2.8l2.8-20.7h4l2.8,20.7Zm-2.1-17.5L133,15.65h2.4Z" fill="#fff"/>
    <path d="M148.45,18.85c0,3.1-2,4.3-4.2,4.3a4,4,0,0,1-4.3-4.3V6.15c0-3.1,1.9-4.3,4.4-4.3,2.2,0,4.2,1,4.2,4.1v3.4h-2.8V6.45c0-1.5-.8-2.1-1.5-2.1s-1.5.5-1.5,2.1v12c0,1.5.8,2.1,1.5,2.1s1.5-.5,1.5-2.1v-2.6h2.8v3Z" fill="#fff"/>
    <path d="M152,22.85V4.75h-2.6V2.15h7.9v2.6h-2.6v18.1Z" fill="#fff"/>
    <path d="M164.25,2.15H167v16.7c0,3.1-2,4.3-4.2,4.3a4,4,0,0,1-4.3-4.3V2.15h2.8v16.4c0,1.5.8,2.1,1.5,2.1s1.5-.5,1.5-2.1V2.15Z" fill="#fff"/>
    <path d="M175.35,22.85l-2.4-8.5h-1.1v8.5H169V2.15h4.6c2.1,0,3.8,1.2,3.8,4.3v3.3c0,2.1-.5,3.3-2,3.9l2.5,9.1h-2.6Zm-.6-16c0-1.5-.5-2.1-1.5-2.1h-1.4v6.9h1.4c1,0,1.5-.5,1.5-2.1Z" fill="#fff"/>
    <path d="M179.25,22.85V2.15h7.4v2.6H182v6.3h4.5v2.6H182v6.5h4.6v2.6h-7.4Z" fill="#fff"/>
    <path d="M194.65,22.85l-2.4-8.5h-1.1v8.5h-2.8V2.15H193c2.1,0,3.8,1.2,3.8,4.3v3.3c0,2.1-.5,3.3-2,3.9l2.5,9.1h-2.6Zm-.5-16c0-1.5-.5-2.1-1.5-2.1h-1.4v6.9h1.4c1,0,1.5-.5,1.5-2.1Z" fill="#fff"/>
    <path d="M202,6.15c0-3.1,1.9-4.3,4.4-4.3s4.1,1.3,4.1,4.3v12.7c0,3.1-2,4.3-4.2,4.3a4,4,0,0,1-4.3-4.3Zm5.7.3c0-1.5-.8-2.1-1.5-2.1s-1.5.5-1.5,2.1v12c0,1.5.8,2.1,1.5,2.1s1.5-.5,1.5-2.1Z" fill="#fff"/>
    <path d="M212.45,22.85V2.15h7.4v2.6h-4.6v6.3h4.5v2.6h-4.5v9.1h-2.8Z" fill="#fff"/>
    <path d="M7.75,55.25v-9.1h-3v9.1H2V34.55h2.8v8.9h3v-8.9h2.8v20.7Z" fill="#fff"/>
    <path d="M18.45,34.55h2.8v16.7c0,3.1-2,4.3-4.2,4.3a4,4,0,0,1-4.3-4.3V34.55h2.8V51c0,1.5.8,2.1,1.5,2.1s1.5-.5,1.5-2.1V34.55Z" fill="#fff"/>
    <path d="M31.45,51.25c0,3-1.8,4.3-4.3,4.3a3.94,3.94,0,0,1-4.3-4.3v-2.9h2.8V51c0,1.5.8,2.1,1.5,2.1s1.5-.5,1.5-2.1v-1.7c0-2.3-5.8-4.2-5.8-8.1v-2.6c0-3.1,2-4.3,4.3-4.3,2.6,0,4.3,1.2,4.3,4.3v3.2h-2.8v-2.9c0-1.5-.8-2.1-1.5-2.1s-1.5.5-1.5,2.1v1.7c0,3.1,5.8,4.2,5.8,8Z" fill="#fff"/>
    <path d="M35,55.25V37.15h-2.6v-2.6h7.9v2.6h-2.6v18.1Z" fill="#fff"/>
    <path d="M41.65,55.25V34.55h2.8v18.1h3.3v2.6Z" fill="#fff"/>
    <path d="M48.95,55.25V34.55h7.4v2.6h-4.6v6.3h4.5v2.7h-4.5v6.5h4.6v2.6Z" fill="#fff"/>
    <path d="M64.35,55.25l-2.4-8.5h-1.1v8.5H58V34.55h4.6c2.1,0,3.8,1.2,3.8,4.3v3.3c0,2.1-.5,3.3-2,3.9l2.5,9.1h-2.6Zm-.6-16c0-1.5-.5-2.1-1.5-2.1h-1.4v7h1.4c1,0,1.5-.5,1.5-2.1Z" fill="#fff"/>
    <path d="M72.95,55.25V37.15h-2.6v-2.6h7.9v2.6h-2.6v18.1Z" fill="#fff"/>
    <path d="M85.25,34.55h2.8v16.7c0,3.1-2,4.3-4.2,4.3a4,4,0,0,1-4.3-4.3V34.55h2.8V51c0,1.5.8,2.1,1.5,2.1s1.5-.5,1.5-2.1V34.55Z" fill="#fff"/>
    <path d="M96.35,55.25l-2.4-8.5h-1.1v8.5H90V34.55h4.6c2.1,0,3.8,1.2,3.8,4.3v3.3c0,2.1-.5,3.3-2,3.9l2.5,9.1h-2.6Zm-.5-16c0-1.5-.5-2.1-1.5-2.1h-1.4v7h1.4c1,0,1.5-.5,1.5-2.1Z" fill="#fff"/>
    <path d="M100.35,55.25V34.55h7.4v2.6h-4.6v6.3h4.5v2.7h-4.5v9.1Z" fill="#fff"/>
    <path d="M112.55,55.25V34.55h7.4v2.6h-4.6v6.3h4.5v2.7h-4.5v6.5h4.6v2.6Z" fill="#fff"/>
    <path d="M127.25,59.05l-1.6-3.5c-2.1,0-4.1-1.2-4.1-4.3V38.55c0-3.1,1.9-4.3,4.4-4.3s4.1,1.2,4.1,4.3v12.7A3.75,3.75,0,0,1,128,55l1.5,3.1Zm.1-20.2c0-1.5-.8-2.1-1.5-2.1s-1.5.5-1.5,2.1v12c0,1.5.8,2.1,1.5,2.1s1.5-.5,1.5-2.1Z" fill="#fff"/>
    <path d="M137.85,34.55h2.8v16.7c0,3.1-2,4.3-4.2,4.3a4,4,0,0,1-4.3-4.3V34.55H135V51c0,1.5.8,2.1,1.5,2.1s1.5-.5,1.5-2.1V34.55Z" fill="#fff"/>
    <path d="M142.75,55.25V34.55h2.8v20.7Z" fill="#fff"/>
    <path d="M147.65,55.25V34.55h4.6c2.1,0,3.8,1.2,3.8,4.3v3.5c0,3.1-1.6,4.3-3.7,4.3h-2v8.5h-2.7Zm5.6-16c0-1.5-.5-2.1-1.5-2.1h-1.4v7h1.4c1,0,1.5-.5,1.5-2.1Z" fill="#fff"/>
    <path d="M168.45,55.25l.1-15.5-2.8,15.5h-2.5l-2.8-15.4.1,15.4h-2.8V34.55h4.5l2.3,14.4,2.3-14.4h4.5v20.7Z" fill="#fff"/>
    <path d="M173.35,55.25V34.55h7.4v2.6h-4.6v6.3h4.5v2.7h-4.5v6.5h4.6v2.6Z" fill="#fff"/>
    <path d="M188.85,55.25l-3.6-13.8.1,13.8h-2.8V34.55H186l3.8,14-.1-14h2.8v20.7Z" fill="#fff"/>
    <path d="M196.35,55.25V37.15h-2.6v-2.6h7.9v2.6H199v18.1Z" fill="#fff"/>
    <path d="M211.45,55.25l-.5-4.6h-3.1l-.5,4.6h-2.8l2.8-20.7h4l2.8,20.7Zm-2.1-17.5L208.15,48h2.4Z" fill="#fff"/>
    <path d="M221.65,55.25,218,41.45l.1,13.8h-2.8V34.55h3.5l3.8,14-.1-14h2.8v20.7Z" fill="#fff"/>
    <path d="M227.45,55.25V34.55h4.6c2.1,0,3.8,1.2,3.8,4.3v12c0,3.1-1.7,4.3-3.8,4.3h-4.6Zm5.6-16c0-1.5-.5-2.1-1.5-2.1h-1.4v15.4h1.4c1,0,1.5-.5,1.5-2.1Z" fill="#fff"/>
    <path d="M44.35,87.65V67h4.6c2.1,0,3.8,1.3,3.8,4.3v2.6a2.92,2.92,0,0,1-2,3.1,3.1,3.1,0,0,1,2.2,3.3v3c0,3-1.7,4.3-3.8,4.3h-4.8Zm5.7-16c0-1.5-.5-2.1-1.5-2.1h-1.4v6.2h1.4c1,0,1.5-.5,1.5-2.1Zm.2,8.8c0-1.5-.8-2.1-1.8-2.1H47V85h1.6c1,0,1.5-.5,1.5-2.1v-2.4Z" fill="#fff"/>
    <path d="M54.75,87.65V67h2.8v20.7Z" fill="#fff"/>
    <path d="M65.65,79.65h-1.8v-2.6h4.6v6.6c0,3.1-2,4.3-4.4,4.3s-4.4-1.3-4.4-4.3V71c0-3.1,1.9-4.3,4.4-4.3s4.4,1.3,4.4,4.3v3.2h-2.8v-2.9c0-1.5-.8-2.1-1.6-2.1s-1.6.5-1.6,2.1v12c0,1.5.8,2.1,1.6,2.1s1.6-.5,1.6-2.1Z" fill="#fff"/>
    <path d="M70.25,87.65V67h4.6c2.1,0,3.8,1.2,3.8,4.3v12c0,3.1-1.7,4.3-3.8,4.3h-4.6Zm5.6-16c0-1.5-.5-2.1-1.5-2.1h-1.4V85h1.4c1,0,1.5-.5,1.5-2.1Z" fill="#fff"/>
    <path d="M80.55,71c0-3.1,1.9-4.3,4.4-4.3S89,68,89,71v12.7c0,3.1-2,4.3-4.2,4.3a4,4,0,0,1-4.3-4.3Zm5.7.3c0-1.5-.8-2.1-1.5-2.1s-1.5.5-1.5,2.1v12c0,1.5.8,2.1,1.5,2.1s1.5-.5,1.5-2.1Z" fill="#fff"/>
    <path d="M96.95,79.65h-1.8v-2.6h4.6v6.6c0,3.1-2,4.3-4.4,4.3s-4.4-1.3-4.4-4.3V71c0-3.1,1.9-4.3,4.4-4.3s4.4,1.3,4.4,4.3v3.2h-2.8v-2.9c0-1.5-.8-2.1-1.6-2.1s-1.6.5-1.6,2.1v12c0,1.5.8,2.1,1.6,2.1s1.6-.5,1.6-2.1Z" fill="#fff"/>
    <path d="M115.75,87.65l.1-15.5L113,87.65h-2.5l-2.8-15.5.1,15.4H105V67h4.5l2.3,14.4,2.3-14.4h4.5v20.7Z" fill="#fff"/>
    <path d="M120.55,71c0-3.1,1.9-4.3,4.4-4.3S129,68,129,71v12.7c0,3.1-2,4.3-4.2,4.3a4,4,0,0,1-4.3-4.3Zm5.8.3c0-1.5-.8-2.1-1.5-2.1s-1.5.5-1.5,2.1v12c0,1.5.8,2.1,1.5,2.1s1.5-.5,1.5-2.1Z" fill="#fff"/>
    <path d="M143.85,87.65H140L138.15,71l-1.8,16.7h-3.9L130.15,67H133l1.5,16,1.8-16h3.9L142,83l1.5-16h2.8Z" fill="#fff"/>
    <path d="M147.45,87.65V67h7.4v2.6h-4.6v6.3h4.5v2.6h-4.5V85h4.6v2.6h-7.4Z" fill="#fff"/>
    <path d="M162.85,87.65l-2.4-8.5h-1.1v8.5h-2.8V67h4.6c2.1,0,3.8,1.2,3.8,4.3v3.3c0,2.1-.5,3.3-2,3.9l2.5,9.1h-2.6Zm-.5-16c0-1.5-.5-2.1-1.5-2.1h-1.4v6.9h1.4c1,0,1.5-.5,1.5-2.1Z" fill="#fff"/>
    <path d="M178.65,83.65c0,3.1-2,4.3-4.2,4.3a4,4,0,0,1-4.3-4.3V71c0-3.1,1.9-4.3,4.4-4.3,2.2,0,4.2,1,4.2,4.1v3.4h-2.9v-2.9c0-1.5-.8-2.1-1.5-2.1s-1.5.5-1.5,2.1v12c0,1.5.8,2.1,1.5,2.1s1.5-.5,1.5-2.1v-2.6h2.8Z" fill="#fff"/>
    <path d="M180.25,71c0-3.1,1.9-4.3,4.4-4.3s4.1,1.3,4.1,4.3v12.7c0,3.1-2,4.3-4.2,4.3a4,4,0,0,1-4.3-4.3Zm5.8.3c0-1.5-.8-2.1-1.5-2.1s-1.5.5-1.5,2.1v12c0,1.5.8,2.1,1.5,2.1s1.5-.5,1.5-2.1Z" fill="#fff"/>
    <path d="M190.35,86.15a1.7,1.7,0,1,1,1.7,1.7h0A1.75,1.75,0,0,1,190.35,86.15Z" fill="#fff"/>
</svg>
