<svg xmlns="http://www.w3.org/2000/svg" viewBox="0 0 250 50">
    <title>logo</title>
    <g id="eb510770-06b2-4724-adbd-ce7658782eb6" data-name="Toolbox">
        <path d="M13.15,25.45H46.7v7.63H9.63a7.77,7.77,0,0,1-5.69-2.3,7.88,7.88,0,0,1-2.42-5.69V10.55A7.88,7.88,0,0,1,3.94,4.85,7.26,7.26,0,0,1,9.63,2.43H46.7v7.63H13.15ZM20,14.18v6.66H44.39V14.18Z" fill="#fff"/>
        <path d="M98.54,33.08H83.4l-9.21-9.93-9.08,9.93h-15L65.83,16.72,50.69,2.43H65.11l9.08,9,9.21-9H97.81L82.67,16.72Z" fill="#fff"/>
        <path d="M113.92,25.45h33.55v7.63H110.28a7.77,7.77,0,0,1-5.69-2.3,7.88,7.88,0,0,1-2.42-5.69V10.55a7.88,7.88,0,0,1,2.42-5.69,7.43,7.43,0,0,1,5.69-2.42h37.06v7.63H113.92Z" fill="#fff"/>
        <path d="M163.94,25.45h33.55v7.63H160.43a7.77,7.77,0,0,1-5.69-2.3,7.88,7.88,0,0,1-2.42-5.69V10.55a7.88,7.88,0,0,1,2.42-5.69,7.77,7.77,0,0,1,5.69-2.3h37.06v7.63H163.94Zm6.9-11.26v6.54h24.35V14.18Z" fill="#fff"/>
        <path d="M247.51,25.32v7.75H202.33V2.31H214.2V25.2h33.31Z" fill="#fff"/>
        <path d="M106.53,39.25h1.33v8.24h-1.33Z" fill="#fff"/>
        <path d="M116.95,39.25h1.21l6.66,6.54V39.25h1.09v8.24h-1.09l-6.66-6.42v6.42h-1.21Z" fill="#fff"/>
        <path d="M142.14,40a3.93,3.93,0,0,1,1.7,3.39,4,4,0,0,1-1.7,3.51,5.84,5.84,0,0,1-3.15.61h-4.48V39.25H139A5.77,5.77,0,0,1,142.14,40Zm-6.42.36v5.93h3c2.42,0,3.63-.73,3.63-3s-1.21-2.91-3.63-2.91Z" fill="#fff"/>
        <path d="M152.31,46.4h6.06V39.25h1.33v6.3c0,1.57-.48,1.94-1.94,1.94h-4.84c-1.45,0-1.94-.36-1.94-1.94v-6.3h1.33Z" fill="#fff"/>
        <path d="M187.32,47.49H186V40.34h-3.75V39.25h9v1.09h-3.75v7.15Z" fill="#fff"/>
        <path d="M198.22,39.25h6.66c1.21,0,1.7.48,1.7,1.57v1.82c0,1.21-.48,1.57-1.7,1.57h-1.21l3.75,3.27h-2.06L202,44.22h-2.42v3.27h-1.33Zm1.45,1.09v2.91h4.72c.61,0,.85-.12.85-.85V41.19c0-.73-.24-.85-.85-.85Z" fill="#fff"/>
        <path d="M215.54,39.25h1.33v8.24h-1.33Z" fill="#fff"/>
        <polygon points="226.44 46.4 226.44 43.73 232.13 43.73 232.13 42.64 226.44 42.64 226.44 40.34 232.98 40.34 232.98 39.25 224.98 39.25 224.98 47.49 232.98 47.49 232.98 46.4 226.44 46.4" fill="#fff"/>
        <path d="M241.34,40.34v2.3h5.21c1.45,0,1.94.48,1.94,1.94v1c0,1.57-.48,1.94-1.94,1.94h-6.18V46.4h6.9V44h-5.21c-1.45,0-1.94-.36-1.94-1.94v-.85c0-1.57.48-1.94,1.94-1.94h6.3v1.09Z" fill="#fff"/>
        <path d="M168.54,40.34v2.3h5.21c1.45,0,1.94.48,1.94,1.94v1c0,1.57-.48,1.94-1.94,1.94h-6.3V46.4h6.9V44h-5.21c-1.45,0-1.94-.36-1.94-1.94v-.85c0-1.57.48-1.94,1.94-1.94h6.3v1.09Z" fill="#fff"/>
    </g>
</svg>
