<svg id="Layer_1" data-name="Layer 1" xmlns="http://www.w3.org/2000/svg" viewBox="0 0 207.9 41.3"><defs><style>.cls-1{fill:#fff;}</style></defs><title>Artboard 1</title><g id="Toolbox"><path class="cls-1" d="M11.6,21H39.3v6.3H8.7A6.41,6.41,0,0,1,4,25.4a6.51,6.51,0,0,1-2-4.7V8.7A6.51,6.51,0,0,1,4,4,6,6,0,0,1,8.7,2H39.3V8.3H11.6Zm5.7-9.3v5.5H37.4V11.7Z"/><path class="cls-1" d="M82.1,27.3H69.6L62,19.1l-7.5,8.2H42.1l13-13.5L42.6,2H54.5L62,9.4,69.6,2H81.5L69,13.8Z"/><path class="cls-1" d="M94.8,21h27.7v6.3H91.8a6.41,6.41,0,0,1-4.7-1.9,6.51,6.51,0,0,1-2-4.7V8.7a6.51,6.51,0,0,1,2-4.7,6.14,6.14,0,0,1,4.7-2h30.6V8.3H94.8Z"/><path class="cls-1" d="M136.1,21h27.7v6.3H133.2a6.41,6.41,0,0,1-4.7-1.9,6.51,6.51,0,0,1-2-4.7V8.7a6.51,6.51,0,0,1,2-4.7,6.41,6.41,0,0,1,4.7-1.9h30.6V8.4H136.1Zm5.7-9.3v5.4h20.1V11.7Z"/><path class="cls-1" d="M205.1,20.9v6.4H167.8V1.9h9.8V20.8h27.5Z"/><path class="cls-1" d="M88.7,32.4h1.1v6.8H88.7Z"/><path class="cls-1" d="M97.3,32.4h1l5.5,5.4V32.4h.9v6.8h-.9l-5.5-5.3v5.3h-1Z"/><path class="cls-1" d="M118.1,33a3.24,3.24,0,0,1,1.4,2.8,3.3,3.3,0,0,1-1.4,2.9,4.82,4.82,0,0,1-2.6.5h-3.7V32.4h3.7A4.76,4.76,0,0,1,118.1,33Zm-5.3.3v4.9h2.5c2,0,3-.6,3-2.5s-1-2.4-3-2.4Z"/><path class="cls-1" d="M126.5,38.3h5V32.4h1.1v5.2c0,1.3-.4,1.6-1.6,1.6h-4c-1.2,0-1.6-.3-1.6-1.6V32.4h1.1Z"/><path class="cls-1" d="M155.4,39.2h-1.1V33.3h-3.1v-.9h7.4v.9h-3.1v5.9Z"/><path class="cls-1" d="M164.4,32.4h5.5c1,0,1.4.4,1.4,1.3v1.5c0,1-.4,1.3-1.4,1.3h-1l3.1,2.7h-1.7l-2.8-2.7h-2v2.7h-1.1Zm1.2.9v2.4h3.9c.5,0,.7-.1.7-.7V34c0-.6-.2-.7-.7-.7Z"/><path class="cls-1" d="M178.7,32.4h1.1v6.8h-1.1Z"/><polygon class="cls-1" points="187.7 38.3 187.7 36.1 192.4 36.1 192.4 35.2 187.7 35.2 187.7 33.3 193.1 33.3 193.1 32.4 186.5 32.4 186.5 39.2 193.1 39.2 193.1 38.3 187.7 38.3"/><path class="cls-1" d="M200,33.3v1.9h4.3c1.2,0,1.6.4,1.6,1.6v.8c0,1.3-.4,1.6-1.6,1.6h-5.1v-.9h5.7v-2h-4.3c-1.2,0-1.6-.3-1.6-1.6V34c0-1.3.4-1.6,1.6-1.6h5.2v.9Z"/><path class="cls-1" d="M139.9,33.3v1.9h4.3c1.2,0,1.6.4,1.6,1.6v.8c0,1.3-.4,1.6-1.6,1.6H139v-.9h5.7v-2h-4.3c-1.2,0-1.6-.3-1.6-1.6V34c0-1.3.4-1.6,1.6-1.6h5.2v.9Z"/></g></svg>